<?xml version="1.0" standalone="no"?>
<!DOCTYPE svg PUBLIC "-//W3C//DTD SVG 20010904//EN"
 "http://www.w3.org/TR/2001/REC-SVG-20010904/DTD/svg10.dtd">
<svg version="1.0" xmlns="http://www.w3.org/2000/svg"
 width="1024.000000pt" height="1024.000000pt" viewBox="0 0 1024.000000 1024.000000"
 preserveAspectRatio="xMidYMid meet">

<g transform="translate(0.000000,1024.000000) scale(0.100000,-0.100000)"
fill="#000000" stroke="none">
<path d="M5042 8680 c-113 -17 -237 -100 -307 -205 -61 -93 -76 -150 -82 -322
l-6 -152 -51 -6 c-344 -43 -723 -166 -1062 -344 -141 -74 -326 -192 -452 -286
-539 -405 -942 -1017 -1087 -1647 l-27 -118 -72 0 c-65 0 -78 -3 -113 -29 -70
-51 -73 -67 -73 -430 0 -311 0 -319 23 -361 23 -45 74 -80 114 -80 l23 0 -2
-917 -3 -916 -38 -3 c-91 -8 -138 -65 -145 -179 -10 -161 17 -230 103 -259
l40 -14 0 -163 c0 -151 -1 -162 -19 -165 -36 -5 -71 -26 -96 -57 -22 -27 -25
-41 -25 -109 l0 -78 -268 0 -268 0 -24 -25 c-28 -28 -32 -66 -9 -89 14 -15
389 -16 4009 -16 l3993 0 6 23 c12 44 6 76 -16 91 -19 14 -65 16 -296 16 -257
0 -274 1 -267 18 4 9 10 38 12 64 7 63 -25 120 -82 148 -23 11 -47 20 -53 20
-9 0 -12 43 -12 158 l0 157 53 25 c79 38 92 68 92 210 0 102 -3 119 -23 151
-26 43 -75 69 -126 69 l-36 0 0 919 0 919 31 6 c41 8 86 41 105 78 19 36 20
60 16 424 -2 274 -3 282 -25 315 -39 58 -81 79 -158 79 l-67 0 -22 98 c-124
543 -428 1061 -872 1481 -211 200 -479 380 -793 532 -297 144 -599 239 -876
276 l-127 17 -5 151 c-5 162 -18 219 -72 306 -55 89 -155 172 -244 204 -52 18
-154 25 -219 15z m210 -173 c95 -55 149 -147 155 -262 1 -38 0 -64 -3 -57 -5
10 -13 7 -33 -11 -29 -28 -102 -69 -109 -62 -3 2 9 20 26 39 19 22 35 55 43
90 10 48 10 61 -5 100 -10 25 -34 60 -54 77 l-37 33 -6 -85 c-3 -46 -6 -77 -7
-69 -1 9 -5 11 -10 5 -17 -24 -74 -55 -100 -55 -34 0 -52 16 -52 48 0 13 -4
20 -10 17 -5 -3 -10 -16 -10 -28 0 -16 -3 -18 -9 -9 -4 8 -12 13 -17 12 -14
-2 -26 71 -19 118 l6 44 -31 -24 c-70 -51 -92 -156 -50 -238 23 -45 20 -65 -6
-34 -13 16 -15 17 -10 2 8 -26 -7 -22 -32 7 -12 14 -29 25 -38 25 -14 0 -16 9
-11 61 11 121 91 235 193 274 62 24 180 15 236 -18z m-277 -387 c10 -11 16
-20 13 -20 -3 0 -13 9 -23 20 -10 11 -16 20 -13 20 3 0 13 -9 23 -20z m144
-321 c0 13 4 22 7 18 15 -14 33 -404 34 -698 l0 -316 29 -6 c52 -11 50 -71 -2
-79 l-22 -3 -3 -350 -2 -351 122 -13 c223 -23 443 -93 705 -224 279 -140 618
-363 963 -631 167 -131 200 -158 194 -168 -15 -23 -385 -298 -559 -415 -331
-222 -549 -334 -830 -427 -205 -67 -438 -116 -555 -116 l-40 0 0 -189 0 -189
33 -11 c34 -12 78 -48 101 -84 13 -21 196 -557 196 -575 0 -5 -165 -10 -375
-11 -246 -1 -375 2 -375 8 0 6 33 105 74 221 41 115 79 232 85 260 17 79 47
128 98 161 26 16 53 29 60 29 10 0 13 40 13 188 l0 188 -118 12 c-361 38 -736
180 -1137 429 -141 88 -467 317 -634 446 l-104 80 34 29 c61 52 382 293 504
380 528 373 960 570 1342 610 l113 12 0 347 0 347 -29 10 c-53 19 -49 82 5 82
l24 0 0 313 c0 290 9 521 27 677 7 63 7 64 14 25 4 -24 7 -30 8 -16z m-227
-44 c-4 -35 -5 -35 -53 -35 -27 0 -68 -4 -91 -10 -24 -5 -109 -21 -189 -34
-161 -28 -401 -94 -566 -157 -212 -80 -476 -220 -638 -338 -245 -178 -533
-468 -697 -701 -67 -97 -188 -290 -188 -303 -1 -7 -7 -1 -16 13 -15 25 -15 25
-8 1 4 -17 3 -21 -6 -16 -8 5 -11 3 -8 -6 3 -8 10 -13 16 -12 6 2 9 -4 5 -13
-3 -9 -9 -12 -12 -7 -11 14 -29 13 -35 -3 -3 -8 -1 -12 4 -9 6 3 7 -1 4 -9 -3
-9 -10 -13 -15 -10 -16 10 -116 -220 -168 -389 -40 -130 -64 -146 -32 -20 62
242 198 546 340 760 122 185 229 313 390 473 385 382 838 638 1371 776 157 40
414 82 510 83 l86 1 -4 -35z m793 5 c370 -62 721 -189 1033 -374 236 -140 401
-268 592 -456 287 -283 497 -594 634 -940 45 -114 120 -360 112 -368 -8 -7
-33 50 -59 133 -47 149 -115 307 -128 299 -5 -3 -6 1 -4 8 3 8 -8 38 -25 68
-16 30 -30 51 -30 46 0 -12 -29 26 -30 38 0 6 7 1 15 -10 14 -18 15 -17 4 8
-7 15 -16 25 -22 21 -6 -3 -7 -1 -3 6 8 12 -18 44 -28 34 -3 -3 -3 -17 1 -31
4 -18 2 -23 -6 -18 -6 4 -9 11 -6 16 3 4 -2 13 -10 20 -17 14 -20 40 -5 40 6
0 10 5 10 10 0 7 -7 7 -21 -1 -15 -8 -19 -8 -15 0 4 6 4 11 -1 11 -13 0 -55
68 -49 79 4 5 1 13 -5 17 -8 5 -9 3 -4 -6 5 -9 4 -11 -3 -6 -8 5 -9 13 -3 25
7 13 6 18 -4 18 -8 0 -11 -5 -8 -11 4 -6 -1 -5 -10 3 -19 15 -23 36 -5 25 7
-4 8 -3 4 5 -4 6 -11 9 -16 6 -4 -3 -13 2 -20 10 -10 13 -9 19 6 38 19 22 19
22 -2 4 -19 -15 -23 -16 -33 -3 -7 8 -9 21 -5 27 4 7 3 9 -3 6 -6 -4 -39 30
-74 75 -35 45 -118 139 -186 208 -67 70 -119 130 -116 134 4 4 0 4 -9 1 -9 -4
-21 1 -29 12 -26 35 -174 149 -314 241 -163 109 -443 250 -627 316 -182 65
-409 122 -610 151 -95 14 -188 25 -205 25 -31 0 -33 2 -33 37 l0 36 118 -6
c64 -4 171 -15 237 -27z m-45 -360 c17 -31 11 -57 -16 -79 -34 -27 -50 -26
-79 4 -29 28 -32 66 -7 87 35 32 81 27 102 -12z m-950 10 c27 -27 25 -56 -6
-86 -42 -43 -104 -15 -104 47 0 56 69 80 110 39z m-340 -250 c24 -24 25 -34 4
-54 -21 -22 -51 -20 -64 3 -14 27 -13 37 6 55 20 21 30 20 54 -4z m1590 -5
c15 -19 4 -52 -21 -60 -11 -4 -26 -1 -34 5 -15 13 -20 51 -8 63 12 12 50 7 63
-8z m-1935 -110 c30 -29 32 -58 5 -85 -37 -37 -87 -19 -104 37 -5 17 -1 29 18
48 31 31 50 32 81 0z m2293 9 c45 -31 19 -114 -36 -114 -56 0 -83 69 -42 110
24 24 48 25 78 4z m-1580 -56 c6 -24 27 -119 47 -213 19 -93 44 -210 55 -260
35 -165 35 -152 3 -158 -15 -3 -31 -2 -35 1 -4 4 -30 113 -57 242 -28 129 -59
274 -70 322 -20 92 -16 108 25 108 17 0 24 -9 32 -42z m861 28 c9 -10 -3 -79
-48 -292 -33 -154 -63 -295 -66 -315 -9 -52 -18 -61 -48 -53 -19 4 -27 13 -27
28 0 29 127 620 137 639 7 12 40 8 52 -7z m-1755 -338 c82 -115 88 -139 39
-146 -16 -2 -38 21 -97 104 -42 58 -76 112 -76 118 0 17 21 36 40 36 9 0 50
-49 94 -112z m2706 97 c6 -8 10 -20 8 -27 -5 -22 -142 -217 -155 -222 -7 -3
-22 3 -35 14 l-23 18 54 79 c109 156 124 171 151 138z m-3128 -82 c22 -20 24
-76 2 -97 -8 -9 -31 -16 -49 -16 -58 0 -86 69 -45 110 24 24 67 26 92 3z
m1066 0 c34 -30 37 -59 8 -88 -31 -31 -59 -32 -86 -3 -25 28 -26 62 0 88 25
25 51 25 78 3z m1370 -3 c42 -40 16 -110 -40 -110 -26 0 -58 36 -58 65 0 29
32 65 58 65 10 0 28 -9 40 -20z m1082 -2 c40 -43 15 -108 -43 -108 -41 0 -67
26 -67 66 0 59 69 85 110 42z m-2829 -431 c125 -177 124 -174 109 -192 -29
-35 -41 -24 -197 193 -55 76 -61 90 -41 110 25 25 46 8 129 -111z m2171 106
c10 -9 18 -21 18 -27 -1 -6 -45 -72 -98 -146 -80 -111 -102 -135 -122 -135
-49 0 -37 37 56 167 92 130 114 158 122 158 3 0 14 -7 24 -17z m-1893 -62 c46
-78 50 -96 22 -111 -28 -15 -27 -15 -67 47 -53 83 -59 100 -44 118 25 30 47
17 89 -54z m1572 59 c10 -6 19 -16 19 -22 0 -20 -83 -158 -95 -158 -6 0 -20 6
-30 14 -22 16 -17 32 40 122 38 59 38 59 66 44z m-2893 -86 c41 -28 24 -88
-31 -107 -22 -8 -67 33 -67 60 0 29 29 63 53 63 13 0 33 -7 45 -16z m4224 -1
c22 -20 23 -61 1 -85 -22 -25 -79 -24 -93 1 -36 68 37 134 92 84z m-3834 -35
c30 -30 -3 -87 -39 -68 -32 17 -19 80 16 80 6 0 16 -5 23 -12z m3406 -4 c37
-37 0 -88 -42 -58 -26 18 -27 31 -5 56 20 22 27 22 47 2z m-2980 -159 c47 -52
86 -97 86 -100 0 -2 -12 -12 -26 -21 l-26 -17 -84 86 c-46 48 -84 95 -84 105
0 21 18 42 36 42 7 0 51 -43 98 -95z m2630 76 c16 -17 16 -22 4 -39 -32 -46
-157 -172 -171 -172 -19 0 -40 25 -35 44 3 17 165 186 177 186 4 0 16 -9 25
-19z m-2904 -202 c14 -11 64 -47 112 -79 47 -33 89 -63 92 -68 6 -10 -21 -52
-33 -52 -4 0 -62 36 -129 80 -122 79 -139 99 -110 128 17 17 39 14 68 -9z
m3124 -1 c14 -20 14 -24 0 -39 -30 -33 -233 -161 -247 -156 -23 9 -28 47 -9
62 41 34 218 154 229 154 6 1 19 -9 27 -21z m-4056 -158 c29 -27 28 -44 -5
-69 -23 -19 -29 -20 -47 -8 -27 18 -32 59 -11 81 22 21 37 20 63 -4z m4982 0
c23 -23 25 -40 8 -62 -20 -24 -44 -28 -67 -12 -25 18 -27 56 -5 78 21 21 40
20 64 -4z m-4446 -61 c35 -27 37 -90 4 -113 -34 -24 -73 -20 -97 10 -28 35
-26 69 4 99 30 30 54 31 89 4z m3938 -9 c24 -25 29 -36 24 -58 -15 -62 -88
-83 -125 -36 -28 35 -26 69 4 99 32 33 60 31 97 -5z m-4262 -443 c0 -203 -10
-381 -20 -353 -3 9 -9 17 -14 16 -4 0 -17 14 -30 32 -20 29 -26 33 -62 30
-207 -19 -531 15 -723 74 -62 20 -122 36 -132 37 -18 1 -19 12 -19 174 l0 173
500 0 500 0 0 -183z m5494 167 c8 -21 8 -263 0 -303 -4 -17 -10 -29 -14 -26
-4 3 -47 -9 -96 -26 -222 -75 -592 -115 -766 -84 -32 6 -38 4 -53 -19 -12 -18
-16 -37 -11 -59 4 -25 3 -28 -5 -14 -10 16 -12 16 -29 -5 -19 -23 -19 -21 -21
147 -3 180 -3 193 0 323 l1 82 494 0 c441 0 495 -2 500 -16z m-954 -549 c0 -8
-10 -19 -21 -26 -21 -11 -21 -11 -3 15 22 30 24 31 24 11z m-4635 -15 c-3 -5
-12 -10 -18 -10 -7 0 -6 4 3 10 19 12 23 12 15 0z m-676 -442 c-1 -68 -5 -134
-9 -148 -7 -21 -8 -22 -10 -5 -1 19 -2 19 -9 2 -4 -10 -10 -18 -14 -18 -4 1
-11 1 -17 1 -5 0 -11 -26 -13 -57 -2 -32 -4 30 -5 138 -1 108 1 199 5 202 3 4
21 7 40 7 l33 0 -1 -122z m219 -42 c2 -128 0 -157 -10 -149 -7 6 -25 11 -40
11 -24 0 -27 -5 -31 -37 -2 -20 -4 49 -5 152 l-2 188 43 -3 42 -3 3 -159z
m268 151 c4 -3 3 -73 -1 -154 -5 -81 -11 -139 -14 -128 -5 16 -15 21 -48 21
-40 1 -42 0 -46 -30 -2 -17 -5 21 -5 85 -1 64 -5 137 -8 162 l-7 46 39 3 c53
4 83 3 90 -5z m213 -154 c-1 -101 -5 -154 -9 -133 l-7 35 -3 -30 c-2 -30 -2
-30 -10 -5 -7 25 -9 24 -23 -20 -3 -8 -6 -1 -8 15 l-2 30 -7 -35 c-4 -21 -8
35 -9 138 l-1 172 40 0 40 0 -1 -167z m4718 2 c1 -88 -2 -151 -6 -141 -11 28
-60 30 -71 3 -6 -14 -9 37 -9 141 l-1 163 43 -3 42 -3 2 -160z m492 150 c2 -2
0 -71 -5 -152 -5 -95 -10 -137 -15 -118 -5 23 -7 25 -8 8 -1 -30 -21 -40 -22
-11 0 19 -3 17 -13 -11 -10 -28 -14 -31 -19 -17 -9 24 -9 301 0 310 7 7 73 -1
82 -9z m192 5 c18 0 19 -9 18 -157 0 -120 -3 -152 -11 -133 -10 24 -10 24 -18
5 -8 -19 -9 -19 -9 -1 -1 15 -4 16 -15 7 -11 -9 -15 -8 -20 5 -8 22 -8 269 1
278 4 3 13 4 21 1 7 -3 22 -5 33 -5z m-423 -152 c0 -84 -3 -139 -5 -122 l-4
31 -43 -10 c-37 -8 -46 -15 -54 -41 -8 -24 -10 8 -11 132 l-1 162 60 0 60 0
-2 -152z m-4452 107 c9 -14 14 -28 11 -31 -6 -7 -173 -79 -204 -88 -17 -5 -26
-1 -39 19 -10 16 -13 30 -8 35 12 12 195 89 211 90 7 0 20 -11 29 -25z m3699
-11 c50 -19 96 -38 103 -41 6 -3 12 -13 12 -22 0 -10 -6 -25 -12 -34 -12 -15
-22 -12 -113 24 -54 21 -103 43 -108 48 -13 13 0 61 16 61 7 0 53 -16 102 -36z
m-3423 -179 c15 -33 9 -39 -107 -103 -192 -105 -614 -322 -628 -322 -17 0 -27
20 -23 45 2 11 122 80 358 204 196 102 360 190 364 194 13 13 24 7 36 -18z
m3207 -59 c75 -40 231 -122 346 -181 237 -122 240 -124 225 -139 -5 -5 -10
-18 -10 -28 0 -15 -4 -16 -27 -7 -59 22 -716 375 -720 387 -7 16 15 42 35 42
8 0 76 -33 151 -74z m-2965 -95 c9 -10 14 -24 11 -32 -9 -24 -294 -232 -309
-226 -8 3 -19 15 -25 25 -8 15 -6 24 12 40 26 24 279 210 288 211 3 1 13 -7
23 -18z m2722 -89 c119 -86 149 -112 149 -131 0 -57 -25 -47 -180 66 -83 60
-151 117 -153 127 -4 17 14 46 28 46 4 0 74 -49 156 -108z m-2442 -71 c21 -23
21 -23 -53 -116 -31 -39 -76 -96 -100 -128 -45 -59 -58 -67 -67 -43 -3 8 -12
12 -20 9 -31 -12 -12 22 70 129 77 99 137 168 145 168 4 0 16 -9 25 -19z
m2106 -93 c87 -110 129 -173 120 -181 -3 -2 -16 -7 -30 -10 -22 -5 -35 8 -120
115 -52 66 -99 127 -103 135 -9 14 17 53 35 53 4 0 48 -51 98 -112z m-1856
-47 c16 -17 10 -31 -102 -259 -66 -133 -125 -248 -132 -257 -16 -19 -25 -19
-44 0 -12 12 -13 22 -6 41 15 38 230 467 242 482 14 16 22 15 42 -7z m1579
-94 c72 -132 197 -388 197 -404 0 -7 -6 -10 -14 -7 -8 3 -17 1 -21 -5 -3 -6
-10 -11 -16 -11 -5 0 -65 113 -135 251 -118 236 -124 252 -109 269 9 10 23 16
30 14 7 -3 37 -51 68 -107z m-291 -77 c26 -52 50 -110 54 -127 6 -29 4 -33
-14 -33 -11 0 -22 -6 -25 -12 -3 -7 -25 30 -49 82 -70 150 -72 158 -58 175 24
29 45 10 92 -85z m-1008 84 c22 -8 21 -13 -25 -120 -22 -53 -44 -106 -49 -119
-8 -22 -12 -23 -39 -12 -17 6 -31 15 -31 19 0 23 104 238 115 238 8 0 20 -3
29 -6z m-1424 -76 c27 -30 25 -62 -6 -87 -34 -27 -52 -26 -81 1 -28 26 -30 61
-3 88 26 26 64 25 90 -2z m3856 14 c13 -9 34 -46 34 -62 0 -19 -48 -60 -70
-60 -27 0 -60 34 -60 63 0 50 57 86 96 59z m-3124 -217 c8 -19 8 -28 -2 -40
-32 -38 -94 1 -70 45 16 29 58 26 72 -5z m2372 3 c8 -13 8 -23 0 -35 -28 -45
-89 -9 -64 38 13 24 48 22 64 -3z m-3466 -226 c1 -78 -2 -157 -7 -175 -7 -25
-9 -27 -10 -9 -1 27 -28 71 -56 92 -19 14 -25 16 -53 19 -7 0 -10 6 -7 11 3 6
2 10 -4 10 -5 0 -11 -5 -13 -11 -6 -17 -79 -23 -89 -7 -7 10 -9 10 -9 -2 0
-13 -1 -13 -10 0 -8 12 -13 13 -29 3 -19 -12 -31 -8 -31 11 0 6 4 5 9 -3 6 -9
9 -5 9 14 l0 27 -26 -25 c-17 -18 -26 -38 -26 -63 -1 -21 -7 -39 -14 -42 -8
-2 -10 3 -6 15 4 13 3 14 -4 5 -5 -8 -28 -16 -51 -19 -28 -4 -41 -11 -42 -22
0 -11 -3 -9 -9 7 -12 28 -18 28 -28 1 -8 -20 -9 -20 -24 11 -14 28 -16 29 -21
11 -3 -13 -1 -19 5 -14 7 3 8 1 4 -6 -6 -9 -11 -9 -22 0 -11 9 -14 8 -14 -7
-1 -16 -3 -15 -14 6 l-14 25 -5 -30 -4 -30 -2 32 c-3 65 -93 96 -146 51 -14
-13 -27 -33 -28 -45 -2 -27 -10 -29 -31 -8 -13 13 -15 12 -19 -12 -2 -16 -5
49 -6 144 l-1 172 28 3 c15 2 205 3 422 3 l395 0 3 -143z m5350 -29 c1 -95 -1
-173 -6 -173 -5 0 -9 14 -10 31 -1 43 -12 50 -13 8 0 -30 -1 -32 -9 -11 -5 12
-12 22 -15 22 -4 0 -3 -4 0 -10 3 -5 1 -10 -4 -10 -6 0 -11 11 -11 24 0 17 -9
28 -34 40 -48 23 -81 20 -111 -10 -25 -25 -27 -25 -46 -8 -10 9 -19 12 -19 6
0 -6 5 -14 10 -17 6 -3 10 -14 10 -23 0 -15 -2 -15 -10 -2 -8 12 -11 13 -19 1
-6 -9 -11 -10 -15 -2 -4 6 -2 11 3 11 6 0 11 5 11 10 0 16 -40 12 -46 -5 -10
-24 -27 -17 -21 8 6 22 6 22 -12 -2 -15 -20 -25 -23 -60 -19 -37 3 -42 1 -38
-14 3 -10 1 -16 -4 -12 -5 3 -9 -1 -9 -8 0 -10 -3 -9 -9 2 -6 8 -7 26 -4 41
11 56 -32 129 -76 129 -11 0 -8 -5 7 -16 36 -25 28 -42 -18 -39 -33 2 -38 0
-29 -12 14 -16 -3 -62 -23 -65 -54 -6 -68 -3 -62 14 3 10 1 18 -5 18 -6 0 -11
-9 -11 -20 0 -13 -7 -20 -20 -20 -13 0 -20 7 -20 20 0 21 -26 28 -32 8 -3 -7
-7 -6 -11 5 -3 9 -2 17 3 17 6 0 10 5 10 12 0 6 -9 3 -20 -7 -16 -15 -18 -21
-7 -33 10 -13 9 -15 -6 -9 -14 5 -19 0 -25 -26 -9 -41 -18 116 -14 232 l3 80
32 4 c18 2 208 3 422 3 l390 -1 3 -172z m-3678 18 c18 -36 -11 -68 -50 -56
-42 13 -29 75 15 75 14 0 29 -8 35 -19z m1219 1 c11 -21 -11 -62 -33 -62 -23
0 -39 28 -32 55 8 31 50 35 65 7z m-2053 -37 c9 -23 -15 -55 -42 -55 -17 0
-28 8 -36 26 -11 23 -10 29 11 45 18 15 27 16 42 8 11 -6 22 -16 25 -24z
m2894 5 c15 -28 -4 -60 -36 -60 -31 0 -54 41 -34 65 18 21 57 19 70 -5z
m-3276 -31 c35 -28 35 -70 0 -98 -15 -12 -32 -21 -39 -21 -7 0 -24 9 -39 21
-32 25 -35 70 -6 99 26 26 51 25 84 -1z m3667 3 c45 -38 16 -122 -43 -122 -25
0 -68 44 -68 70 0 26 43 70 68 70 11 0 30 -8 43 -18z m-723 -54 c11 -18 31
-61 45 -94 l25 -62 -26 -11 c-27 -13 -47 1 -37 27 3 7 1 11 -3 8 -10 -6 -38
39 -56 92 -13 35 -12 41 2 56 23 22 28 21 50 -16z m-2248 7 c11 -13 5 -30 -32
-104 -43 -85 -45 -87 -66 -73 -12 8 -22 19 -22 25 0 6 16 46 37 89 37 80 57
95 83 63z m3957 -67 c-3 -7 -5 -2 -5 12 0 14 2 19 5 13 2 -7 2 -19 0 -25z
m-100 6 c-3 -3 -12 -4 -19 -1 -8 3 -5 6 6 6 11 1 17 -2 13 -5z m293 -10 c0 -8
-19 -13 -24 -6 -3 5 1 9 9 9 8 0 15 -2 15 -3z m-3808 -41 c35 -32 13 -93 -34
-93 -49 0 -74 56 -41 92 20 22 51 23 75 1z m1580 0 c20 -18 24 -63 6 -81 -34
-34 -102 4 -91 51 11 44 53 59 85 30z m2441 -361 c3 -4 3 -37 0 -75 l-6 -67
-3241 0 c-2580 0 -3245 3 -3255 13 -11 10 -13 10 -7 0 4 -7 3 -13 -2 -13 -11
0 -26 126 -17 140 7 12 6521 14 6528 2z m-6293 -377 l0 -55 -25 16 c-20 13
-25 14 -26 3 0 -12 -1 -12 -6 0 -5 11 -7 11 -14 0 -6 -9 -9 5 -9 39 l0 52 40
0 40 0 0 -55z m570 -1 c0 -47 -2 -55 -14 -45 -10 8 -72 11 -209 9 l-195 -3 -5
40 c-2 22 -2 43 0 48 2 4 98 7 214 7 l209 0 0 -56z m266 41 c4 -8 3 -32 -1
-52 -5 -27 -9 -33 -16 -22 -7 11 -9 10 -10 -6 -1 -14 -3 -15 -6 -4 -4 15 -50
18 -72 4 -7 -4 -11 11 -11 44 l0 51 55 0 c40 0 57 -4 61 -15z m373 -37 c0 -29
-3 -47 -6 -39 -3 8 -8 9 -12 4 -4 -6 -40 -7 -91 -3 -47 3 -88 2 -91 -3 -3 -5
-9 -1 -13 8 -8 22 -8 70 1 78 3 4 53 7 110 7 l103 0 -1 -52z m401 2 c0 -44 -2
-51 -17 -46 -10 3 -64 6 -120 8 -57 1 -104 5 -104 8 -5 18 -7 57 -5 65 2 7 52
12 125 14 l121 3 0 -52z m568 46 c4 -2 6 -25 4 -51 -3 -34 -7 -44 -14 -34 -7
11 -11 11 -14 2 -4 -8 -20 -11 -47 -7 -64 7 -317 10 -317 3 0 -3 -6 -6 -14 -6
-10 0 -15 15 -18 44 -2 25 -2 46 0 48 5 5 412 6 420 1z m352 -40 c0 -42 -19
-91 -20 -51 0 17 -2 17 -10 5 -5 -8 -10 -10 -10 -5 0 22 -39 14 -43 -8 -2 -12
-5 3 -6 34 0 31 2 59 6 62 3 4 23 6 45 5 38 -1 38 -2 38 -42z m410 -4 l0 -47
-116 3 c-79 2 -120 0 -130 -9 -12 -10 -14 -4 -14 38 0 27 3 52 6 55 3 4 62 6
130 7 l124 0 0 -47z m404 16 c-3 -75 -6 -93 -12 -76 -6 14 -22 16 -120 15
l-112 -2 -6 32 c-12 62 -8 64 128 61 l123 -3 -1 -27z m236 -28 c0 -58 -1 -60
-20 -50 -15 8 -20 8 -21 -2 0 -7 -4 -4 -9 7 -8 19 -8 19 -18 -5 -9 -21 -11
-14 -11 43 l-1 67 40 0 40 0 0 -60z m400 3 c0 -32 -4 -53 -8 -47 -4 6 -15 10
-24 8 -10 -1 -18 1 -18 4 0 4 -40 7 -90 7 -49 0 -90 -3 -90 -7 0 -5 -4 -8 -10
-8 -5 0 -10 23 -10 50 l0 50 125 0 125 0 0 -57z m550 5 c0 -38 -3 -49 -10 -38
-5 8 -10 11 -10 5 0 -6 -64 -9 -177 -7 -122 2 -178 -1 -183 -8 -4 -6 -10 10
-13 35 -4 26 -4 51 -1 56 3 5 93 9 200 9 l194 0 0 -52z m279 -10 c-1 -35 -3
-55 -6 -46 -5 21 -69 36 -86 19 -21 -21 -27 -11 -27 39 l0 50 60 0 60 0 -1
-62z m351 17 l0 -42 -92 3 c-51 1 -96 3 -100 3 -5 1 -8 16 -8 35 0 40 3 41
123 43 l77 1 0 -43z m726 23 c-3 -13 -6 -32 -6 -44 0 -20 -5 -20 -271 -21
-215 -1 -274 -4 -280 -15 -5 -8 -9 9 -9 45 l0 57 286 0 286 0 -6 -22z m252
-20 c-3 -42 -3 -43 -41 -43 -23 0 -42 -6 -47 -15 -7 -11 -10 0 -10 36 0 28 3
54 7 57 3 4 26 7 50 7 l44 0 -3 -42z m167 -393 c0 -20 -7 -20 -3195 -22 -1757
-1 -3214 -4 -3237 -6 -28 -3 -40 -1 -36 6 4 6 -8 8 -36 4 -32 -4 -44 -2 -48
10 -3 8 0 19 8 24 8 5 1399 8 3279 6 3258 -2 3265 -2 3265 -22z"/>
<path d="M4965 5785 c-276 -44 -523 -219 -632 -447 -88 -184 -91 -414 -8 -597
87 -190 280 -359 495 -433 72 -25 218 -48 301 -48 265 0 536 129 683 324 228
304 217 664 -28 933 -202 221 -497 318 -811 268z m75 -240 c0 -73 -3 -87 -17
-91 -62 -21 -145 -67 -186 -104 -26 -23 -50 -41 -52 -39 -2 2 -35 33 -74 68
-39 35 -71 67 -71 71 0 13 90 75 158 110 69 35 171 68 215 69 l27 1 0 -85z
m266 64 c83 -25 148 -58 228 -112 l60 -40 -79 -73 -79 -72 -44 39 c-48 42
-154 99 -184 99 -16 0 -18 9 -18 90 0 88 0 90 24 90 13 0 55 -10 92 -21z m427
-344 c15 -30 30 -68 33 -85 l7 -30 -69 -2 c-158 -5 -169 -4 -172 14 -4 22 148
176 164 166 6 -4 23 -32 37 -63z m-1111 -12 c43 -43 78 -83 78 -90 0 -10 -26
-13 -104 -13 -57 0 -112 -3 -122 -7 -15 -5 -16 -2 -10 28 8 41 62 159 73 159
4 0 43 -35 85 -77z m615 18 c152 -78 190 -283 75 -404 -50 -53 -150 -89 -225
-81 -57 5 -150 52 -143 71 3 8 1 11 -4 8 -24 -15 -76 75 -86 146 -9 65 18 150
63 200 85 94 210 117 320 60z m-544 -328 c5 -48 -14 -90 -35 -77 -4 3 -7 0 -6
-6 2 -6 -8 -19 -21 -28 -23 -16 -23 -16 -17 6 6 17 3 22 -9 22 -9 0 -13 5 -10
10 3 6 -1 10 -9 10 -8 0 -18 -5 -21 -10 -4 -6 -12 -4 -22 5 -26 27 -48 14 -46
-25 3 -31 2 -33 -9 -15 -11 19 -38 118 -38 143 0 9 30 12 119 12 l118 0 6 -47z
m1087 28 c0 -22 -31 -123 -37 -117 -2 2 -5 13 -8 25 -6 32 -14 41 -36 41 -10
0 -19 4 -19 10 0 14 -63 0 -77 -17 -10 -12 -13 -12 -23 4 -10 16 -11 16 -6 -5
4 -19 2 -21 -10 -11 -8 6 -18 9 -21 5 -4 -4 -1 -11 7 -16 12 -8 12 -10 -4 -10
-16 0 -18 5 -12 38 3 20 6 45 6 55 0 15 12 17 120 17 111 0 120 -1 120 -19z
m-193 -108 c-14 -14 -19 -15 -29 -4 -11 10 -10 11 3 6 10 -4 20 -2 24 4 3 6 9
11 13 11 3 0 -1 -8 -11 -17z m130 -15 c-3 -8 -6 -5 -6 6 -1 11 2 17 5 13 3 -3
4 -12 1 -19z m-891 -99 c31 -35 119 -88 168 -101 25 -7 46 -16 46 -21 0 -11
-56 1 -92 19 -15 8 -32 14 -37 14 -13 0 -101 66 -96 72 2 2 -5 4 -15 4 -11 0
-20 -3 -20 -6 0 -3 -9 -11 -21 -18 -17 -11 -15 -6 8 22 15 20 31 36 34 36 3 0
14 -10 25 -21z m630 -11 c16 -18 22 -27 12 -20 -9 7 -18 9 -20 5 -3 -4 -3 -1
-1 7 2 8 -6 3 -17 -11 -11 -15 -32 -35 -47 -45 -24 -15 -26 -15 -14 -1 7 9 9
17 3 17 -5 0 -15 -7 -22 -15 -7 -8 -16 -13 -20 -10 -4 2 -24 -5 -46 -15 -21
-11 -45 -20 -54 -20 -9 0 -21 -5 -28 -12 -9 -9 -12 -9 -12 0 0 7 8 15 18 18
53 18 161 77 186 103 17 17 30 31 31 31 1 0 14 -14 31 -32z"/>
<path d="M5068 5201 c-75 -24 -118 -85 -118 -168 0 -63 33 -113 95 -143 59
-28 112 -23 168 18 79 57 96 138 47 218 -38 61 -127 95 -192 75z"/>
<path d="M5392 4710 c-7 -11 -9 -20 -4 -20 10 0 32 22 32 32 0 15 -15 8 -28
-12z"/>
<path d="M5063 3505 c-33 -23 -40 -77 -15 -118 11 -20 16 -40 12 -48 -4 -8
-17 -50 -29 -94 -12 -44 -24 -88 -27 -97 -5 -16 5 -18 111 -18 l115 0 -6 28
c-4 15 -20 67 -35 116 -28 89 -28 90 -8 114 59 75 -39 172 -118 117z"/>
<path d="M2606 6475 c-9 -26 -7 -32 5 -12 6 10 9 21 6 23 -2 3 -7 -2 -11 -11z"/>
<path d="M7666 6367 c3 -10 9 -15 12 -12 3 3 0 11 -7 18 -10 9 -11 8 -5 -6z"/>
<path d="M7706 6342 c-3 -5 1 -9 9 -9 8 0 12 4 9 9 -3 4 -7 8 -9 8 -2 0 -6 -4
-9 -8z"/>
<path d="M7732 6290 c-7 -11 -8 -20 -3 -20 9 0 24 30 18 36 -1 2 -8 -6 -15
-16z"/>
<path d="M2702 5375 c-16 -36 -15 -49 6 -68 28 -26 78 -22 98 7 13 22 14 29 2
53 -11 23 -21 29 -54 31 -35 3 -42 0 -52 -23z"/>
<path d="M2090 5214 c-25 -22 -30 -32 -25 -53 7 -30 58 -81 81 -81 40 0 93 49
94 87 0 29 -54 73 -90 73 -16 0 -42 -11 -60 -26z"/>
<path d="M2554 5221 c-18 -11 -36 -25 -40 -33 -6 -9 -11 -4 -16 17 -4 18 -5
10 -2 -20 12 -106 60 -148 162 -143 51 3 67 9 88 29 37 37 24 59 -35 59 -55 0
-95 18 -99 45 -11 73 -12 74 -58 46z"/>
<path d="M2360 5100 c0 -5 5 -10 10 -10 6 0 10 5 10 10 0 6 -4 10 -10 10 -5 0
-10 -4 -10 -10z"/>
<path d="M7439 5381 c-34 -35 -36 -51 -9 -76 38 -35 110 -10 110 39 0 27 -9
40 -37 55 -30 15 -31 15 -64 -18z"/>
<path d="M7726 5215 c4 -32 3 -36 -6 -22 -14 21 -67 50 -80 42 -5 -3 -12 -21
-16 -40 -8 -47 -27 -59 -97 -65 -35 -3 -62 -10 -65 -17 -2 -7 9 -26 25 -42 87
-86 244 -14 251 116 1 21 -2 45 -8 53 -7 10 -8 3 -4 -25z"/>
<path d="M8021 5214 c-48 -40 -37 -94 22 -119 42 -17 83 -9 107 23 23 28 24
41 9 75 -23 51 -91 61 -138 21z"/>
<path d="M7590 5170 c-9 -6 -10 -10 -3 -10 6 0 15 5 18 10 8 12 4 12 -15 0z"/>
<path d="M7845 5100 c-3 -5 3 -10 15 -10 12 0 18 5 15 10 -3 6 -10 10 -15 10
-5 0 -12 -4 -15 -10z"/>
<path d="M2715 3356 c-36 -36 -33 -73 7 -90 18 -8 39 -11 47 -8 27 9 51 34 51
52 0 24 -30 57 -57 65 -17 4 -30 -1 -48 -19z"/>
<path d="M7450 3367 c-13 -7 -29 -25 -34 -39 -20 -58 64 -93 113 -47 12 12 20
28 17 36 -3 8 -6 19 -6 24 0 7 -51 39 -62 39 -2 0 -14 -6 -28 -13z"/>
<path d="M7590 3175 c0 -8 4 -15 10 -15 5 0 7 7 4 15 -4 8 -8 15 -10 15 -2 0
-4 -7 -4 -15z"/>
<path d="M7558 3153 c7 -3 16 -2 19 1 4 3 -2 6 -13 5 -11 0 -14 -3 -6 -6z"/>
<path d="M3060 2570 c-63 -6 -62 -7 30 -8 61 0 88 2 75 8 -11 5 -24 8 -30 8
-5 -1 -39 -4 -75 -8z"/>
<path d="M3700 2569 c-14 -4 45 -7 130 -7 85 0 148 2 140 4 -33 7 -247 10
-270 3z"/>
<path d="M7315 2570 c-17 -7 -15 -9 13 -9 17 -1 32 4 32 9 0 12 -17 12 -45 0z"/>
<path d="M7880 2570 c-37 -6 -30 -7 40 -8 56 0 78 2 65 8 -23 10 -42 10 -105
0z"/>
<path d="M1898 2563 c7 -3 16 -2 19 1 4 3 -2 6 -13 5 -11 0 -14 -3 -6 -6z"/>
<path d="M2578 2563 c12 -2 32 -2 45 0 12 2 2 4 -23 4 -25 0 -35 -2 -22 -4z"/>
<path d="M2868 2563 c17 -2 47 -2 65 0 17 2 3 4 -33 4 -36 0 -50 -2 -32 -4z"/>
<path d="M3458 2563 c12 -2 32 -2 45 0 12 2 2 4 -23 4 -25 0 -35 -2 -22 -4z"/>
<path d="M4598 2563 c23 -2 61 -2 85 0 23 2 4 4 -43 4 -47 0 -66 -2 -42 -4z"/>
<path d="M4798 2563 c18 -2 45 -2 60 0 15 2 0 4 -33 4 -33 0 -45 -2 -27 -4z"/>
<path d="M6113 2563 c9 -2 25 -2 35 0 9 3 1 5 -18 5 -19 0 -27 -2 -17 -5z"/>
<path d="M6698 2563 c7 -3 16 -2 19 1 4 3 -2 6 -13 5 -11 0 -14 -3 -6 -6z"/>
<path d="M7138 2563 c12 -2 32 -2 45 0 12 2 2 4 -23 4 -25 0 -35 -2 -22 -4z"/>
<path d="M8058 2563 c7 -3 16 -2 19 1 4 3 -2 6 -13 5 -11 0 -14 -3 -6 -6z"/>
<path d="M8248 2563 c7 -3 16 -2 19 1 4 3 -2 6 -13 5 -11 0 -14 -3 -6 -6z"/>
</g>
</svg>
